<svg width="22" height="22" viewBox="0 0 22 22" fill="none" xmlns="http://www.w3.org/2000/svg">
<path d="M3.30923 6.3435C3.42288 6.38968 3.54407 6.41454 3.66673 6.41683H18.3334C18.4561 6.41454 18.5772 6.38968 18.6909 6.3435C18.9097 6.25066 19.0839 6.07647 19.1767 5.85766C19.2246 5.74456 19.2493 5.62299 19.2493 5.50016C19.2493 5.37734 19.2246 5.25576 19.1767 5.14266C19.1299 5.03727 19.0647 4.94105 18.9842 4.8585C18.9017 4.77798 18.8055 4.71279 18.7001 4.666C18.5842 4.61555 18.4597 4.58755 18.3334 4.5835H3.66673C3.54407 4.58579 3.42288 4.61064 3.30923 4.65683C3.20383 4.70363 3.10761 4.76881 3.02506 4.84933C2.94454 4.93188 2.87935 5.0281 2.83256 5.1335C2.78466 5.2466 2.75997 5.36817 2.75997 5.491C2.75997 5.61382 2.78466 5.7354 2.83256 5.8485C2.92125 6.06906 3.09216 6.24655 3.30923 6.3435ZM9.52423 15.6568C9.41057 15.6106 9.28938 15.5858 9.16673 15.5835H3.66673C3.54407 15.5858 3.42288 15.6106 3.30923 15.6568C3.09042 15.7497 2.91623 15.9239 2.82339 16.1427C2.77549 16.2558 2.75081 16.3773 2.75081 16.5002C2.75081 16.623 2.77549 16.7446 2.82339 16.8577C2.91623 17.0765 3.09042 17.2507 3.30923 17.3435C3.42288 17.3897 3.54407 17.4145 3.66673 17.4168H9.16673C9.28938 17.4145 9.41057 17.3897 9.52423 17.3435C9.74303 17.2507 9.91723 17.0765 10.0101 16.8577C10.058 16.7446 10.0826 16.623 10.0826 16.5002C10.0826 16.3773 10.058 16.2558 10.0101 16.1427C9.91723 15.9239 9.74303 15.7497 9.52423 15.6568ZM9.81756 10.3493C9.73191 10.2644 9.63032 10.1972 9.51864 10.1515C9.40696 10.1059 9.28736 10.0828 9.16673 10.0835H3.66673C3.42361 10.0835 3.19045 10.1801 3.01854 10.352C2.84664 10.5239 2.75006 10.757 2.75006 11.0002C2.74135 11.0794 2.74135 11.1593 2.75006 11.2385C2.74589 11.275 2.74589 11.3119 2.75006 11.3485C2.82317 11.528 2.95127 11.6796 3.11596 11.7817C3.28066 11.8839 3.47347 11.9311 3.66673 11.9168H9.16673C9.3477 11.9159 9.52436 11.8615 9.67443 11.7603C9.82451 11.6592 9.94129 11.5159 10.0101 11.3485C10.0142 11.3119 10.0142 11.275 10.0101 11.2385C10.0435 11.1621 10.0681 11.0821 10.0834 11.0002C10.0841 10.8795 10.061 10.7599 10.0153 10.6482C9.96973 10.5366 9.90252 10.435 9.81756 10.3493ZM17.6826 11.7243L14.2084 15.2077L12.5676 13.5577C12.4821 13.4722 12.3806 13.4044 12.269 13.3581C12.1573 13.3119 12.0376 13.2881 11.9167 13.2881C11.7959 13.2881 11.6762 13.3119 11.5645 13.3581C11.4528 13.4044 11.3514 13.4722 11.2659 13.5577C11.1804 13.6431 11.1126 13.7446 11.0664 13.8563C11.0201 13.9679 10.9963 14.0876 10.9963 14.2085C10.9963 14.3294 11.0201 14.4491 11.0664 14.5607C11.1126 14.6724 11.1804 14.7739 11.2659 14.8593L13.5576 17.151C13.6428 17.2369 13.7442 17.3051 13.8559 17.3516C13.9676 17.3982 14.0874 17.4221 14.2084 17.4221C14.3294 17.4221 14.4492 17.3982 14.5609 17.3516C14.6726 17.3051 14.774 17.2369 14.8592 17.151L18.9842 13.026C19.0697 12.9405 19.1375 12.8391 19.1837 12.7274C19.23 12.6157 19.2538 12.496 19.2538 12.3752C19.2538 12.2543 19.23 12.1346 19.1837 12.0229C19.1375 11.9113 19.0697 11.8098 18.9842 11.7243C18.8988 11.6389 18.7973 11.5711 18.6856 11.5248C18.574 11.4786 18.4543 11.4547 18.3334 11.4547C18.2125 11.4547 18.0928 11.4786 17.9812 11.5248C17.8695 11.5711 17.768 11.6389 17.6826 11.7243Z" fill="white"/>
</svg>
