<svg width="24" height="24" viewBox="0 0 24 24" class="mui-style-1r8a4t6-offerCouponIcon" xmlns="http://www.w3.org/2000/svg">
  <path d="M13.5699 21.0001C13.6625 20.7754 13.8022 20.5731 13.9795 20.407C14.1569 20.2408 14.3679 20.1146 14.5982 20.0369C14.8285 19.9592 15.0728 19.9317 15.3146 19.9564C15.5564 19.9812 15.7901 20.0574 15.9999 20.1801C16.2867 20.3496 16.6167 20.4317 16.9495 20.4162C17.2823 20.4007 17.6033 20.2883 17.8731 20.0928C18.1429 19.8974 18.3497 19.6274 18.4682 19.316C18.5866 19.0047 18.6116 18.6655 18.5399 18.3401C18.4862 18.1028 18.4838 17.8568 18.5328 17.6185C18.5817 17.3802 18.681 17.1551 18.8239 16.9582C18.9669 16.7614 19.1502 16.5973 19.3616 16.4769C19.573 16.3565 19.8076 16.2826 20.0499 16.2601C20.3904 16.2416 20.7175 16.1211 20.9886 15.9142C21.2597 15.7074 21.4624 15.4238 21.5702 15.1002C21.678 14.7767 21.6861 14.4282 21.5933 14.1001C21.5005 13.7719 21.3112 13.4793 21.0499 13.2601C20.8688 13.0997 20.7237 12.9026 20.6244 12.682C20.5251 12.4613 20.4738 12.2221 20.4738 11.9801C20.4738 11.7382 20.5251 11.4989 20.6244 11.2783C20.7237 11.0576 20.8688 10.8606 21.0499 10.7001C21.3112 10.481 21.5005 10.1883 21.5933 9.86017C21.6861 9.53202 21.678 9.18355 21.5702 8.86003C21.4624 8.53651 21.2597 8.2529 20.9886 8.04605C20.7175 7.8392 20.3904 7.71868 20.0499 7.70013C19.8076 7.67767 19.573 7.60378 19.3616 7.48339C19.1502 7.36301 18.9669 7.19889 18.8239 7.00202C18.681 6.80514 18.5817 6.58004 18.5328 6.34173C18.4838 6.10343 18.4862 5.85742 18.5399 5.62013C18.6018 5.29775 18.5696 4.96438 18.4471 4.65981C18.3246 4.35524 18.1171 4.09236 17.8493 3.90256C17.5814 3.71276 17.2646 3.60406 16.9367 3.58945C16.6088 3.57483 16.2835 3.65491 15.9999 3.82013C15.7901 3.94282 15.5564 4.0191 15.3146 4.04381C15.0728 4.06852 14.8285 4.0411 14.5982 3.96338C14.3679 3.88567 14.1569 3.75947 13.9795 3.59331C13.8022 3.42714 13.6625 3.22487 13.5699 3.00013C13.4376 2.69356 13.2184 2.43244 12.9394 2.24899C12.6604 2.06553 12.3338 1.96777 11.9999 1.96777C11.666 1.96777 11.3394 2.06553 11.0604 2.24899C10.7814 2.43244 10.5622 2.69356 10.4299 3.00013C10.3373 3.22487 10.1976 3.42714 10.0202 3.59331C9.84283 3.75947 9.63188 3.88567 9.40158 3.96338C9.17128 4.0411 8.92699 4.06852 8.68519 4.04381C8.44339 4.0191 8.2097 3.94282 7.99988 3.82013C7.71308 3.65063 7.38302 3.56859 7.05024 3.5841C6.71746 3.59961 6.39645 3.71199 6.12666 3.90742C5.85687 4.10286 5.65004 4.37285 5.53159 4.68423C5.41313 4.9956 5.38821 5.33479 5.45988 5.66013C5.51348 5.89366 5.51741 6.13584 5.4714 6.37099C5.4254 6.60613 5.33049 6.82898 5.19284 7.02509C5.05518 7.2212 4.87785 7.3862 4.67234 7.50938C4.46683 7.63256 4.23773 7.71117 3.99988 7.74013C3.65937 7.75868 3.3323 7.8792 3.06118 8.08605C2.79006 8.2929 2.58741 8.57651 2.47957 8.90003C2.37173 9.22355 2.36368 9.57202 2.45647 9.90017C2.54926 10.2283 2.7386 10.521 2.99988 10.7401C3.18101 10.9006 3.32602 11.0976 3.42533 11.3183C3.52464 11.5389 3.57599 11.7782 3.57599 12.0201C3.57599 12.2621 3.52464 12.5013 3.42533 12.722C3.32602 12.9426 3.18101 13.1397 2.99988 13.3001C2.7386 13.5193 2.54926 13.8119 2.45647 14.1401C2.36368 14.4682 2.37173 14.8167 2.47957 15.1402C2.58741 15.4638 2.79006 15.7474 3.06118 15.9542C3.3323 16.1611 3.65937 16.2816 3.99988 16.3001C4.24213 16.3226 4.47679 16.3965 4.68883 16.5074C4.90087 16.6182 5.08429 16.7629 5.22412 16.9327C5.36395 17.1025 5.45758 17.2919 5.49461 17.4903C5.53163 17.6887 5.51061 17.8886 5.43072 18.0732C5.35084 18.2578 5.21352 18.4145 5.04172 18.5046C4.86993 18.5947 4.67874 18.6073 4.50249 18.6353C4.32623 18.6633 4.17199 18.7055 4.0499 18.7601C3.88885 18.8388 3.71527 18.8674 3.55049 18.8401C3.36589 18.8141 3.18573 18.7939 2.99988 18.7601C2.83386 18.7338 2.66759 18.6754 2.52335 18.5869C2.3791 18.4984 2.25886 18.3824 2.16187 18.2461C2.06489 18.1097 1.99292 17.954 1.94592 17.7826C1.89892 17.6113 1.8773 17.425 1.88333 17.2401C1.88885 17.1154 1.89492 16.9908 1.89988 16.8651L1.99988 16.8601C2.14716 16.8471 2.29052 16.8745 2.41374 16.9319C2.53695 16.9893 2.6326 17.0744 2.68182 17.1748C2.73104 17.2751 2.73449 17.3862 2.68824 17.4855C2.6421 17.585 2.5504 17.6439 2.41988 17.6599C2.28899 17.6755 2.12649 17.6338 2.05042 17.5179C1.97436 17.4019 2.03491 17.2575 2.12488 17.1601C2.20198 17.0757 2.34716 17.0168 2.49988 17.0001" fill="white"/>
</svg>
